<svg width="70" height="70" viewBox="0 0 70 70" fill="none" xmlns="http://www.w3.org/2000/svg">
<circle cx="35" cy="35" r="34.5" fill="white" stroke="#5AC8FA"/>
<path d="M22.6323 34.3262H28.6906C30.6145 34.3262 32.0342 33.8667 32.9497 32.9478C33.8652 32.0289 34.3229 30.6029 34.3229 28.6699V22.6563C34.3229 20.7233 33.8652 19.2973 32.9497 18.3784C32.0342 17.4595 30.6145 17 28.6906 17H22.6323C20.7084 17 19.2888 17.4595 18.3733 18.3784C17.4578 19.2973 17 20.7233 17 22.6563V28.6699C17 30.6029 17.4578 32.0289 18.3733 32.9478C19.2888 33.8667 20.7084 34.3262 22.6323 34.3262ZM22.2008 30.2103C21.4738 30.2103 21.1104 29.8427 21.1104 29.1076V22.2123C21.1104 21.4814 21.4738 21.1159 22.2008 21.1159H29.1159C29.847 21.1159 30.2126 21.4814 30.2126 22.2123V29.1076C30.2126 29.8427 29.847 30.2103 29.1159 30.2103H22.2008ZM23.7153 28.0437H27.5659C27.8857 28.0437 28.0456 27.8677 28.0456 27.5158V23.7863C28.0456 23.4504 27.8857 23.2825 27.5659 23.2825H23.7153C23.4233 23.2825 23.2774 23.4504 23.2774 23.7863V27.5158C23.2774 27.8677 23.4233 28.0437 23.7153 28.0437ZM42.3096 34.3262H48.3677C50.2958 34.3262 51.7165 33.8667 52.6299 32.9478C53.5433 32.0289 54 30.6029 54 28.6699V22.6563C54 20.7233 53.5433 19.2973 52.6299 18.3784C51.7165 17.4595 50.2958 17 48.3677 17H42.3096C40.3857 17 38.966 17.4595 38.0504 18.3784C37.1349 19.2973 36.6772 20.7233 36.6772 22.6563V28.6699C36.6772 30.6029 37.1349 32.0289 38.0504 32.9478C38.966 33.8667 40.3857 34.3262 42.3096 34.3262ZM41.8842 30.2103C41.1531 30.2103 40.7875 29.8427 40.7875 29.1076V22.2123C40.7875 21.4814 41.1531 21.1159 41.8842 21.1159H48.7993C49.5263 21.1159 49.8898 21.4814 49.8898 22.2123V29.1076C49.8898 29.8427 49.5263 30.2103 48.7993 30.2103H41.8842ZM43.4301 28.0437H47.2805C47.6003 28.0437 47.7602 27.8677 47.7602 27.5158V23.7863C47.7602 23.4504 47.6003 23.2825 47.2805 23.2825H43.4301C43.138 23.2825 42.9919 23.4504 42.9919 23.7863V27.5158C42.9919 27.8677 43.138 28.0437 43.4301 28.0437ZM22.6323 54H28.6906C30.6145 54 32.0342 53.5416 32.9497 52.6247C33.8652 51.7079 34.3229 50.2809 34.3229 48.3437V42.3301C34.3229 40.3971 33.8652 38.9721 32.9497 38.0553C32.0342 37.1385 30.6145 36.68 28.6906 36.68H22.6323C20.7084 36.68 19.2888 37.1385 18.3733 38.0553C17.4578 38.9721 17 40.3971 17 42.3301V48.3437C17 50.2809 17.4578 51.7079 18.3733 52.6247C19.2888 53.5416 20.7084 54 22.6323 54ZM22.2008 49.8841C21.4738 49.8841 21.1104 49.5186 21.1104 48.7876V41.8924C21.1104 41.1573 21.4738 40.7897 22.2008 40.7897H29.1159C29.847 40.7897 30.2126 41.1573 30.2126 41.8924V48.7876C30.2126 49.5186 29.847 49.8841 29.1159 49.8841H22.2008ZM23.7153 47.7175H27.5659C27.8857 47.7175 28.0456 47.5415 28.0456 47.1896V43.4601C28.0456 43.1242 27.8857 42.9563 27.5659 42.9563H23.7153C23.4233 42.9563 23.2774 43.1242 23.2774 43.4601V47.1896C23.2774 47.5415 23.4233 47.7175 23.7153 47.7175ZM38.1584 42.2563H42.009C42.3287 42.2563 42.4886 42.0803 42.4886 41.7284V37.9988C42.4886 37.663 42.3287 37.4951 42.009 37.4951H38.1584C37.8664 37.4951 37.7204 37.663 37.7204 37.9988V41.7284C37.7204 42.0803 37.8664 42.2563 38.1584 42.2563ZM48.5566 42.2563H52.4071C52.7268 42.2563 52.8867 42.0803 52.8867 41.7284V37.9988C52.8867 37.663 52.7268 37.4951 52.4071 37.4951H48.5566C48.2645 37.4951 48.1184 37.663 48.1184 37.9988V41.7284C48.1184 42.0803 48.2645 42.2563 48.5566 42.2563ZM43.4057 47.4544H47.2562C47.5762 47.4544 47.7361 47.2785 47.7361 46.9265V43.197C47.7361 42.8612 47.5762 42.6932 47.2562 42.6932H43.4057C43.1138 42.6932 42.9679 42.8612 42.9679 43.197V46.9265C42.9679 47.2785 43.1138 47.4544 43.4057 47.4544ZM38.1584 52.6526H42.009C42.3287 52.6526 42.4886 52.4766 42.4886 52.1247V48.3951C42.4886 48.0593 42.3287 47.8914 42.009 47.8914H38.1584C37.8664 47.8914 37.7204 48.0593 37.7204 48.3951V52.1247C37.7204 52.4766 37.8664 52.6526 38.1584 52.6526ZM48.5566 52.6526H52.4071C52.7268 52.6526 52.8867 52.4766 52.8867 52.1247V48.3951C52.8867 48.0593 52.7268 47.8914 52.4071 47.8914H48.5566C48.2645 47.8914 48.1184 48.0593 48.1184 48.3951V52.1247C48.1184 52.4766 48.2645 52.6526 48.5566 52.6526Z" fill="#5AC8FA"/>
</svg>
